<svg width="32" height="32" viewBox="0 0 32 32" fill="none" xmlns="http://www.w3.org/2000/svg">
<path d="M16 31.5C24.5604 31.5 31.5 24.5604 31.5 16C31.5 7.43959 24.5604 0.5 16 0.5C7.43959 0.5 0.5 7.43959 0.5 16C0.5 24.5604 7.43959 31.5 16 31.5Z" fill="#EEF5FC"/>
<path d="M28 25.9899C26.6638 24.4416 24.9287 23.1844 22.9327 22.3182C20.9367 21.452 18.7347 21.0006 16.5018 21C14.2689 20.9994 12.0666 21.4495 10.07 22.3147C8.07332 23.1798 6.4375 24 5 26C6.33054 27.5554 8.06369 28.803 10.0605 29.6742C12.0572 30.5453 14.2621 30.9994 16.4982 31C18.7343 31.0006 20.9395 30.5477 22.9369 29.6777C24.9343 28.8076 26.6683 27.5446 28 25.9899Z" fill="#4294FF"/>
<path d="M16 19C18.7614 19 21 16.7614 21 14C21 11.2386 18.7614 9 16 9C13.2386 9 11 11.2386 11 14C11 16.7614 13.2386 19 16 19Z" fill="#4294FF"/>
</svg>
