<svg width="19" height="20" viewBox="0 0 19 20" fill="none" xmlns="http://www.w3.org/2000/svg">
<path opacity="0.4" d="M14.235 12.2593C13.7085 11.6643 13.0537 11.1967 12.3201 10.8918C11.5864 10.5869 10.7931 10.4527 10 10.4993H6C1.94 10.4993 0.5 13.4693 0.5 16.0193C0.5 18.2993 1.71 19.4993 4 19.4993H11.24C11.2921 19.4986 11.3432 19.4843 11.3881 19.4579C11.4331 19.4315 11.4703 19.3938 11.4963 19.3486C11.5222 19.3034 11.5359 19.2521 11.5361 19.2C11.5362 19.1479 11.5227 19.0966 11.497 19.0513C11.2005 18.4742 11.0324 17.8398 11.0041 17.1916C10.9757 16.5434 11.0879 15.8968 11.3328 15.296C11.5778 14.6953 11.9498 14.1546 12.4233 13.711C12.8967 13.2675 13.4605 12.9315 14.076 12.7263C14.1226 12.713 14.1654 12.6886 14.2005 12.6552C14.2357 12.6218 14.2622 12.5803 14.2778 12.5344C14.2935 12.4885 14.2977 12.4395 14.2903 12.3916C14.2828 12.3437 14.2639 12.2983 14.235 12.2593Z" fill="#9AC4F2"/>
<path d="M8.00879 8.50195C10.2179 8.50195 12.0088 6.71109 12.0088 4.50195C12.0088 2.29281 10.2179 0.501953 8.00879 0.501953C5.79965 0.501953 4.00879 2.29281 4.00879 4.50195C4.00879 6.71109 5.79965 8.50195 8.00879 8.50195Z" fill="#46A3ED"/>
<path d="M18 16.248H16.75V14.998C16.75 14.7991 16.671 14.6084 16.5303 14.4677C16.3897 14.3271 16.1989 14.248 16 14.248C15.8011 14.248 15.6103 14.3271 15.4697 14.4677C15.329 14.6084 15.25 14.7991 15.25 14.998V16.248H14C13.8011 16.248 13.6103 16.3271 13.4697 16.4677C13.329 16.6084 13.25 16.7991 13.25 16.998C13.25 17.197 13.329 17.3877 13.4697 17.5284C13.6103 17.669 13.8011 17.748 14 17.748H15.25V18.998C15.25 19.197 15.329 19.3877 15.4697 19.5284C15.6103 19.669 15.8011 19.748 16 19.748C16.1989 19.748 16.3897 19.669 16.5303 19.5284C16.671 19.3877 16.75 19.197 16.75 18.998V17.748H18C18.1989 17.748 18.3897 17.669 18.5303 17.5284C18.671 17.3877 18.75 17.197 18.75 16.998C18.75 16.7991 18.671 16.6084 18.5303 16.4677C18.3897 16.3271 18.1989 16.248 18 16.248Z" fill="#46A3ED"/>
</svg>
